#!OML:ASF G:\JayActor3\Patient Classification 1\Patient 1\Session 6\male.ASF
:FULLY-SPECIFIED
:DEGREES
1918
root 10.6843 16.1175 -1.00063 1.64081 -79.1442 -8.64629
lowerback 8.41495 -0.702075 4.08581
upperback -0.347043 -0.545598 -0.213263
thorax -5.13001 -0.38408 -2.45198
lowerneck -2.00717 -1.08672 -0.130021
upperneck 27.5152 -2.21881 -1.14381
head 8.89479 -1.54244 -0.604655
rclavicle -7.42802e-015 -6.38596e-015
rhumerus -36.2948 34.3491 -117.145
rradius 54.4442
rwrist 13.9589
rhand -61.1818 10.5237
rfingers 7.12502
rthumb -33.2761 -16.4178
lclavicle -7.42802e-015 -6.38596e-015
lhumerus -39.141 24.8042 74.6859
lradius 63.8512
lwrist -6.29506
lhand -57.7187 -41.9228
lfingers 7.12502
lthumb -29.9775 -14.3315
rfemur -16.9512 7.77321 20.0048
rtibia 43.0163
rfoot -18.6281 -6.33571
rtoes 3.12755
lfemur -0.484463 19.4257 -20.2566
ltibia 26.0609
lfoot -20.9383 3.84583
ltoes 8.03537
1919
root 10.6803 16.1122 -0.99226 1.49442 -79.335 -8.57485
lowerback 8.26511 -0.717177 4.0999
upperback -0.367525 -0.568655 -0.174368
thorax -5.06834 -0.394319 -2.41707
lowerneck -1.98149 -0.95116 0.0126772
upperneck 27.715 -1.9863 -1.44418
head 8.95657 -1.45509 -0.716593
rclavicle 1.83794e-014 1.04176e-014
rhumerus -36.5118 34.5237 -117.201
rradius 54.6772
rwrist 13.9183
rhand -61.0893 10.2256
rfingers 7.12502
rthumb -33.1883 -16.7347
lclavicle 1.83794e-014 1.04176e-014
lhumerus -39.1901 24.8052 74.6599
lradius 63.8007
lwrist -6.21513
lhand -57.7402 -41.8099
lfingers 7.12502
lthumb -29.998 -14.2223
rfemur -16.938 7.83847 19.9592
rtibia 43.1341
rfoot -18.6248 -6.22163
rtoes 2.98371
lfemur -0.358408 19.6819 -20.2314
ltibia 26.0797
lfoot -20.9978 3.76142
ltoes 8.04544
1920
root 10.6765 16.1072 -0.984274 1.35702 -79.5244 -8.50039
lowerback 8.11122 -0.732769 4.11303
upperback -0.39207 -0.592624 -0.135039
thorax -5.00866 -0.405086 -2.38121
lowerneck -1.9492 -0.811973 0.151906
upperneck 27.9015 -1.74829 -1.73864
head 9.01388 -1.365 -0.825579
rclavicle -3.5393e-015 9.7156e-015
rhumerus -36.7285 34.6921 -117.257
rradius 54.9162
rwrist 13.8667
rhand -60.9872 9.93544
rfingers 7.12502
rthumb -33.0912 -17.0455
lclavicle -3.5393e-015 9.7156e-015
lhumerus -39.2506 24.8047 74.6277
lradius 63.7593
lwrist -6.13992
lhand -57.7534 -41.6767
lfingers 7.12502
lthumb -30.0106 -14.0914
rfemur -16.9417 7.90417 19.9135
rtibia 43.2541
rfoot -18.6203 -6.113
rtoes 2.83208
lfemur -0.250507 19.9337 -20.2104
ltibia 26.102
lfoot -21.0561 3.68545
ltoes 8.04143
1921
root 10.672 16.1023 -0.977864 1.24792 -79.7052 -8.45636
lowerback 7.95495 -0.75165 4.11264
upperback -0.413318 -0.622293 -0.0891504
thorax -4.94429 -0.418128 -2.33036
lowerneck -1.91806 -0.66953 0.276173
upperneck 28.0799 -1.5065 -2.01792
head 9.07019 -1.27326 -0.926724
rclavicle 1.01908e-014 -7.7526e-015
rhumerus -36.9414 34.8563 -117.312
rradius 55.1592
rwrist 13.8042
rhand -60.8768 9.64896
rfingers 7.12502
rthumb -32.9862 -17.3542
lclavicle 1.01908e-014 -7.7526e-015
lhumerus -39.32 24.8062 74.5887
lradius 63.7259
lwrist -6.07734
lhand -57.7577 -41.5444
lfingers 7.12502
lthumb -30.0147 -13.9598
rfemur -16.9411 7.9865 19.8867
rtibia 43.3776
rfoot -18.6295 -6.02877
rtoes 2.69609
lfemur -0.138719 20.1869 -20.1709
ltibia 26.1211
lfoot -21.108 3.6063
ltoes 8.00517
1922
root 10.6674 16.0977 -0.972332 1.10286 -79.8746 -8.379
lowerback 7.80409 -0.7749 4.10034
upperback -0.430924 -0.658824 -0.0428142
thorax -4.87941 -0.434231 -2.27166
lowerneck -1.89426 -0.526488 0.378565
upperneck 28.2533 -1.26502 -2.27762
head 9.1277 -1.18206 -1.0177
rclavicle 2.84448e-014 1.22253e-014
rhumerus -37.1523 35.0191 -117.367
rradius 55.4079
rwrist 13.7427
rhand -60.7688 9.36756
rfingers 7.12502
rthumb -32.8835 -17.6572
lclavicle 2.84448e-014 1.22253e-014
lhumerus -39.3706 24.8247 74.5431
lradius 63.6763
lwrist -6.04312
lhand -57.7448 -41.4043
lfingers 7.12502
lthumb -30.0024 -13.8175
rfemur -16.9363 8.06722 19.8598
rtibia 43.5057
rfoot -18.6466 -5.95144
rtoes 2.57932
lfemur -0.0160535 20.419 -20.1327
ltibia 26.1298
lfoot -21.1599 3.52286
ltoes 8.02202
1923
root 10.6629 16.0931 -0.967482 0.85764 -80.0303 -8.20372
lowerback 7.66234 -0.80305 4.06792
upperback -0.445765 -0.703573 9.54185e-005
thorax -4.81703 -0.453975 -2.20439
lowerneck -1.87871 -0.38438 0.464701
upperneck 28.4234 -1.0253 -2.5236
head 9.18687 -1.09215 -1.10157
rclavicle 1.42566e-014 -8.94531e-016
rhumerus -37.3599 35.1809 -117.421
rradius 55.6606
rwrist 13.6725
rhand -60.6628 9.09918
rfingers 7.12502
rthumb -32.7826 -17.9467
lclavicle 1.42566e-014 -8.94531e-016
lhumerus -39.4194 24.837 74.4969
lradius 63.6269
lwrist -6.02148
lhand -57.7361 -41.2735
lfingers 7.12502
lthumb -29.9941 -13.6852
rfemur -16.9302 8.13646 19.8189
rtibia 43.6417
rfoot -18.6677 -5.87793
rtoes 2.46276
lfemur 0.116935 20.6415 -20.1086
ltibia 26.1219
lfoot -21.2002 3.44702
ltoes 8.0028
1924
root 10.6588 16.0886 -0.962936 0.508679 -80.1777 -7.92349
lowerback 7.53099 -0.833218 4.01999
upperback -0.459864 -0.752158 0.037318
thorax -4.75971 -0.475419 -2.13401
lowerneck -1.8712 -0.244364 0.539305
upperneck 28.5903 -0.789027 -2.7579
head 9.24756 -1.00402 -1.17993
rclavicle 4.96962e-017 -1.19271e-015
rhumerus -37.566 35.3497 -117.476
rradius 55.9225
rwrist 13.5728
rhand -60.5537 8.82539
rfingers 7.12502
rthumb -32.6788 -18.242
lclavicle 4.96962e-017 -1.19271e-015
lhumerus -39.461 24.8485 74.4511
lradius 63.5747
lwrist -6.00975
lhand -57.7291 -41.1404
lfingers 7.12502
lthumb -29.9874 -13.5509
rfemur -16.9308 8.19 19.7593
rtibia 43.7889
rfoot -18.6872 -5.79718
rtoes 2.35805
lfemur 0.255883 20.851 -20.105
ltibia 26.0957
lfoot -21.2303 3.38612
ltoes 7.95498
1925
root 10.6554 16.0844 -0.957996 -0.00538299 -80.3184 -7.47366
lowerback 7.41048 -0.864292 3.95478
upperback -0.475025 -0.803296 0.0642308
thorax -4.70952 -0.497991 -2.06446
lowerneck -1.86371 -0.10822 0.613102
upperneck 28.7469 -0.556831 -2.99252
head 9.30553 -0.917939 -1.25862
rclavicle 7.31776e-015 -8.54774e-015
rhumerus -37.7674 35.5058 -117.524
rradius 56.193
rwrist 13.4673
rhand -60.4386 8.55424
rfingers 7.12502
rthumb -32.5693 -18.5359
lclavicle 7.31776e-015 -8.54774e-015
lhumerus -39.4974 24.8515 74.4088
lradius 63.5199
lwrist -5.99803
lhand -57.7262 -41.0125
lfingers 7.12502
lthumb -29.9846 -13.4225
rfemur -16.9455 8.21391 19.6633
rtibia 43.9509
rfoot -18.6995 -5.69862
rtoes 2.236
lfemur 0.399027 21.0392 -20.1391
ltibia 26.0529
lfoot -21.2592 3.32903
ltoes 7.96517
